<?xml version="1.0" standalone="no"?>
<!DOCTYPE svg PUBLIC "-//W3C//DTD SVG 20010904//EN"
 "http://www.w3.org/TR/2001/REC-SVG-20010904/DTD/svg10.dtd">
<svg version="1.0" xmlns="http://www.w3.org/2000/svg"
 width="722.000000pt" height="481.000000pt" viewBox="0 0 722.000000 481.000000"
 preserveAspectRatio="xMidYMid meet">

<g transform="translate(0.000000,481.000000) scale(0.100000,-0.100000)"
fill="#000000" stroke="none">
<path d="M3368 4778 c-10 -19 -12 -347 -8 -1668 l5 -1645 239 -3 c185 -2 241
1 248 10 4 7 8 590 8 1296 l0 1283 25 24 c23 24 28 25 169 25 118 0 147 3 160
16 14 13 16 58 16 339 0 310 -1 325 -19 335 -13 6 -165 10 -425 10 l-406 0
-12 -22z"/>
<path d="M4056 3904 c-14 -14 -16 -138 -16 -1218 0 -921 3 -1205 12 -1214 17
-17 839 -17 856 0 9 9 12 292 12 1213 0 1152 -1 1203 -18 1218 -17 15 -61 17
-425 17 -355 0 -408 -2 -421 -16z"/>
<path d="M1077 3462 c-15 -17 -17 -61 -17 -425 0 -355 2 -408 16 -421 13 -14
66 -16 428 -16 307 0 415 3 424 12 9 9 12 118 12 430 0 402 -1 418 -19 428
-13 6 -164 10 -424 10 -379 0 -405 -1 -420 -18z"/>
<path d="M6350 3460 c-19 -19 -20 -33 -20 -423 0 -379 1 -405 18 -420 17 -15
61 -17 424 -17 380 0 406 1 421 18 15 17 17 61 17 425 l0 406 -22 15 c-19 14
-76 16 -420 16 -385 0 -399 -1 -418 -20z"/>
<path d="M2240 3207 l-25 -13 -5 -418 c-5 -399 -6 -418 -24 -432 -16 -12 -91
-14 -426 -14 -302 0 -409 -3 -418 -12 -9 -9 -12 -118 -12 -430 0 -402 1 -418
19 -428 13 -7 300 -10 860 -10 828 0 841 0 861 20 20 20 20 33 20 863 0 712
-2 846 -14 863 -14 18 -32 19 -413 22 -308 1 -404 -1 -423 -11z"/>
<path d="M5202 3198 c-17 -17 -17 -1709 0 -1726 17 -17 1709 -17 1726 0 17 17
17 829 0 846 -9 9 -116 12 -420 12 -395 0 -409 1 -428 20 -19 19 -20 33 -20
428 0 304 -3 411 -12 420 -17 17 -829 17 -846 0z"/>
<path d="M22 2498 c-9 -9 -12 -138 -12 -520 0 -491 1 -508 19 -518 13 -6 191
-10 509 -10 461 0 490 1 505 18 15 17 17 67 17 518 0 376 -3 503 -12 512 -17
17 -1009 17 -1026 0z"/>
<path d="M0 466 l0 -456 115 0 115 0 0 125 0 125 94 0 94 0 64 -122 64 -123
132 -3 c73 -1 132 0 132 3 0 2 -41 69 -91 147 l-91 143 23 14 c42 27 92 85
113 131 17 37 21 65 21 150 0 98 -2 109 -30 159 -36 64 -82 104 -155 133 -51
21 -75 23 -327 26 l-273 3 0 -455z m494 254 c97 -50 100 -201 5 -252 -27 -14
-56 -18 -151 -18 l-118 0 0 138 c0 76 3 142 7 146 14 14 226 2 257 -14z"/>
<path d="M950 465 l0 -455 365 0 365 0 0 90 0 90 -250 0 -250 0 0 90 0 90 220
0 220 0 0 95 0 95 -220 0 -220 0 0 90 0 90 245 0 245 0 0 90 0 90 -360 0 -360
0 0 -455z"/>
<path d="M2083 823 c-23 -54 -111 -259 -196 -456 l-155 -357 122 0 121 0 30
78 31 77 201 3 201 2 30 -77 30 -78 127 -3 c101 -2 126 0 122 10 -3 7 -87 206
-187 443 -100 237 -184 436 -187 443 -4 9 -39 12 -127 12 l-122 0 -41 -97z
m224 -310 l60 -158 -125 -3 c-69 -1 -127 -1 -129 1 -5 6 119 317 127 317 3 0
33 -71 67 -157z"/>
<path d="M2840 465 l0 -455 310 0 310 0 0 95 0 95 -195 0 -195 0 0 360 0 360
-115 0 -115 0 0 -455z"/>
<path d="M3490 825 l0 -95 135 0 135 0 0 -360 0 -360 115 0 115 0 0 360 0 360
140 0 139 0 3 91 3 91 168 -310 167 -310 0 -141 0 -141 115 0 115 0 0 143 0
142 165 308 c91 169 165 310 165 313 0 2 -53 3 -117 2 l-117 -3 -100 -187
c-56 -103 -104 -189 -107 -193 -4 -3 -55 82 -114 190 l-108 195 -509 0 -508 0
0 -95z"/>
<path d="M5260 465 l0 -455 110 0 110 0 0 277 0 277 207 -277 207 -277 103 0
103 0 0 455 0 455 -105 0 -105 0 0 -275 c0 -151 -3 -275 -7 -274 -5 0 -99 124
-211 275 l-204 274 -104 0 -104 0 0 -455z"/>
<path d="M6422 548 c-88 -205 -177 -410 -196 -456 l-36 -83 122 3 122 3 31 77
30 78 201 0 201 0 30 -77 29 -78 127 -3 126 -3 -43 103 c-23 57 -110 262 -192
456 l-148 352 -122 0 -121 0 -161 -372z m337 -24 c34 -85 61 -159 61 -165 0
-5 -53 -9 -125 -9 -69 0 -125 3 -125 7 0 8 123 323 127 323 1 0 29 -70 62
-156z"/>
</g>
</svg>
