<svg width="1165" height="218" viewBox="0 0 1165 218" fill="none" xmlns="http://www.w3.org/2000/svg">
<g filter="url(#filter0_d_24_2)">
<path d="M87.1914 180.141H55.6484L55.8438 153.773H87.1914C93.7018 153.773 99.2031 152.211 103.695 149.086C108.253 145.961 111.703 141.306 114.047 135.121C116.456 128.871 117.66 121.189 117.66 112.074V105.922C117.66 96.8073 116.456 89.1901 114.047 83.0703C111.703 76.8854 108.22 72.2305 103.598 69.1055C99.0404 65.9805 93.4089 64.418 86.7031 64.418H55.0625V37.9531H86.7031C99.5938 37.9531 110.987 40.8503 120.883 46.6445C130.779 52.3737 138.526 60.3815 144.125 70.668C149.789 80.8893 152.621 92.7057 152.621 106.117V112.074C152.621 125.486 149.822 137.302 144.223 147.523C138.624 157.745 130.876 165.753 120.98 171.547C111.15 177.276 99.8867 180.141 87.1914 180.141ZM75.2773 37.9531V180.141H41V37.9531H75.2773Z" fill="#1C1C1C" fill-opacity="0.1" shape-rendering="crispEdges"/>
<path d="M268.344 153.773V180.141H192.562V153.773H268.344ZM204.77 37.9531V180.141H170.492V37.9531H204.77ZM258.578 94.3984V119.887H192.562V94.3984H258.578ZM268.637 37.9531V64.418H192.562V37.9531H268.637Z" fill="#1C1C1C" fill-opacity="0.1" shape-rendering="crispEdges"/>
<path d="M336.215 146.645L365.805 37.9531H404.184L356.234 180.141H331.43L336.215 146.645ZM309.359 37.9531L338.949 146.645L343.93 180.141H318.832L271.176 37.9531H309.359Z" fill="#1C1C1C" fill-opacity="0.1" shape-rendering="crispEdges"/>
<path d="M512.484 153.773V180.141H436.703V153.773H512.484ZM448.91 37.9531V180.141H414.633V37.9531H448.91ZM502.719 94.3984V119.887H436.703V94.3984H502.719ZM512.777 37.9531V64.418H436.703V37.9531H512.777Z" fill="#1C1C1C" fill-opacity="0.1" shape-rendering="crispEdges"/>
<path d="M620.492 153.773V180.141H548.617V153.773H620.492ZM560.824 37.9531V180.141H526.547V37.9531H560.824Z" fill="#1C1C1C" fill-opacity="0.1" shape-rendering="crispEdges"/>
<path d="M748.812 106.215V111.977C748.812 126.495 746.176 138.995 740.902 149.477C735.629 159.893 728.305 167.934 718.93 173.598C709.62 179.262 698.91 182.094 686.801 182.094C674.626 182.094 663.852 179.262 654.477 173.598C645.102 167.934 637.745 159.893 632.406 149.477C627.133 138.995 624.496 126.495 624.496 111.977V106.215C624.496 91.6966 627.133 79.1966 632.406 68.7148C637.68 58.2331 644.971 50.1602 654.281 44.4961C663.656 38.832 674.431 36 686.605 36C698.715 36 709.457 38.832 718.832 44.4961C728.207 50.1602 735.531 58.2331 740.805 68.7148C746.143 79.1966 748.812 91.6966 748.812 106.215ZM714.047 111.977V106.02C714.047 96.6445 712.973 88.7669 710.824 82.3867C708.676 75.9414 705.551 71.0911 701.449 67.8359C697.413 64.5156 692.465 62.8555 686.605 62.8555C680.551 62.8555 675.505 64.5156 671.469 67.8359C667.432 71.0911 664.405 75.9414 662.387 82.3867C660.368 88.7669 659.359 96.6445 659.359 106.02V111.977C659.359 121.221 660.368 129.099 662.387 135.609C664.47 142.055 667.53 146.97 671.566 150.355C675.668 153.676 680.746 155.336 686.801 155.336C692.66 155.336 697.608 153.676 701.645 150.355C705.681 146.97 708.741 142.055 710.824 135.609C712.973 129.099 714.047 121.221 714.047 111.977Z" fill="#1C1C1C" fill-opacity="0.1" shape-rendering="crispEdges"/>
<path d="M823.324 131.898H787.973V105.434H823.324C828.142 105.434 832.048 104.62 835.043 102.992C838.038 101.365 840.219 99.1185 841.586 96.2539C843.018 93.3242 843.734 90.0365 843.734 86.3906C843.734 82.4844 843.018 78.8711 841.586 75.5508C840.219 72.2305 838.038 69.5612 835.043 67.543C832.048 65.4596 828.142 64.418 823.324 64.418H800.863V180.141H766.586V37.9531H823.324C834.717 37.9531 844.516 40.0365 852.719 44.2031C860.987 48.3698 867.335 54.099 871.762 61.3906C876.189 68.6172 878.402 76.8854 878.402 86.1953C878.402 95.375 876.189 103.383 871.762 110.219C867.335 117.055 860.987 122.393 852.719 126.234C844.516 130.01 834.717 131.898 823.324 131.898Z" fill="#1C1C1C" fill-opacity="0.1" shape-rendering="crispEdges"/>
<path d="M994.711 153.773V180.141H918.93V153.773H994.711ZM931.137 37.9531V180.141H896.859V37.9531H931.137ZM984.945 94.3984V119.887H918.93V94.3984H984.945ZM995.004 37.9531V64.418H918.93V37.9531H995.004Z" fill="#1C1C1C" fill-opacity="0.1" shape-rendering="crispEdges"/>
<path d="M1008.77 37.9531H1064.73C1075.67 37.9531 1085.17 39.5807 1093.25 42.8359C1101.32 46.0911 1107.54 50.9089 1111.9 57.2891C1116.33 63.6693 1118.54 71.5469 1118.54 80.9219C1118.54 89.0599 1117.27 95.8633 1114.73 101.332C1112.19 106.801 1108.64 111.326 1104.09 114.906C1099.59 118.422 1094.35 121.319 1088.36 123.598L1077.13 129.945H1030.16L1029.96 103.48H1064.73C1069.09 103.48 1072.71 102.699 1075.57 101.137C1078.43 99.5742 1080.58 97.3607 1082.02 94.4961C1083.51 91.5664 1084.26 88.0833 1084.26 84.0469C1084.26 77.9271 1082.6 73.1419 1079.28 69.6914C1075.96 66.1758 1071.11 64.418 1064.73 64.418H1043.05V180.141H1008.77V37.9531ZM1086.61 180.141L1055.16 117.25L1091.49 117.055L1123.32 178.676V180.141H1086.61Z" fill="#1C1C1C" fill-opacity="0.1" shape-rendering="crispEdges"/>
</g>
<defs>
<filter id="filter0_d_24_2" x="14" y="9" width="1136.32" height="200.094" filterUnits="userSpaceOnUse" color-interpolation-filters="sRGB">
<feFlood flood-opacity="0" result="BackgroundImageFix"/>
<feColorMatrix in="SourceAlpha" type="matrix" values="0 0 0 0 0 0 0 0 0 0 0 0 0 0 0 0 0 0 127 0" result="hardAlpha"/>
<feOffset/>
<feGaussianBlur stdDeviation="13.5"/>
<feComposite in2="hardAlpha" operator="out"/>
<feColorMatrix type="matrix" values="0 0 0 0 0.776471 0 0 0 0 0.776471 0 0 0 0 0.776471 0 0 0 0.05 0"/>
<feBlend mode="normal" in2="BackgroundImageFix" result="effect1_dropShadow_24_2"/>
<feBlend mode="normal" in="SourceGraphic" in2="effect1_dropShadow_24_2" result="shape"/>
</filter>
</defs>
</svg>