<svg width="187" height="141" viewBox="0 0 187 141" fill="none" xmlns="http://www.w3.org/2000/svg">
<rect opacity="0.2" x="35.125" y="19.125" width="89.75" height="89.75" rx="9.875" stroke="#666666" stroke-width="0.25"/>
<circle opacity="0.2" cx="80" cy="64" r="49.875" stroke="#666666" stroke-width="0.25"/>
<rect opacity="0.2" x="40.125" y="14.125" width="79.75" height="99.75" rx="9.875" stroke="#666666" stroke-width="0.25"/>
<rect opacity="0.2" x="30.125" y="24.125" width="99.75" height="79.75" rx="9.875" stroke="#666666" stroke-width="0.25"/>
<path fill-rule="evenodd" clip-rule="evenodd" d="M46.3254 24L46.5 24H113.5L113.675 24C116.826 23.9999 119.441 23.9998 121.514 24.2786C123.697 24.5721 125.65 25.2154 127.218 26.7825C128.785 28.3495 129.428 30.3026 129.721 32.486C130 34.5593 130 37.1743 130 40.3253V40.5V72.5V72.6747C130 75.8257 130 78.4407 129.721 80.514C129.428 82.6974 128.785 84.6505 127.218 86.2175C125.65 87.7846 123.697 88.4279 121.514 88.7214C119.441 89.0002 116.826 89.0001 113.675 89H113.5H92.5V99H100C101.381 99 102.5 100.119 102.5 101.5C102.5 102.881 101.381 104 100 104H80H60C58.6193 104 57.5 102.881 57.5 101.5C57.5 100.119 58.6193 99 60 99H67.5V89H46.5H46.3253H46.3253H46.3253C43.1743 89.0001 40.5593 89.0002 38.486 88.7214C36.3026 88.4279 34.3495 87.7846 32.7825 86.2175C31.2154 84.6505 30.5721 82.6974 30.2786 80.514C29.9998 78.4407 29.9999 75.8257 30 72.6747V72.6747V72.6747L30 72.5V40.5L30 40.3254V40.3253V40.3253C29.9999 37.1743 29.9998 34.5593 30.2786 32.486C30.5721 30.3026 31.2154 28.3495 32.7825 26.7825C34.3495 25.2154 36.3026 24.5721 38.486 24.2786C40.5593 23.9998 43.1743 23.9999 46.3254 24ZM72.5 99H80H87.5V89H72.5V99ZM39.1522 29.234C37.5232 29.453 36.8012 29.8348 36.318 30.318C35.8348 30.8012 35.453 31.5232 35.234 33.1522C35.0053 34.8531 35 37.1295 35 40.5V72.5C35 75.8705 35.0053 78.1469 35.234 79.8478C35.453 81.4768 35.8348 82.1988 36.318 82.682C36.8012 83.1652 37.5232 83.547 39.1522 83.766C40.8531 83.9947 43.1295 84 46.5 84H113.5C116.871 84 119.147 83.9947 120.848 83.766C122.477 83.547 123.199 83.1652 123.682 82.682C124.165 82.1988 124.547 81.4768 124.766 79.8478C124.995 78.1469 125 75.8705 125 72.5V40.5C125 37.1295 124.995 34.8531 124.766 33.1522C124.547 31.5232 124.165 30.8012 123.682 30.318C123.199 29.8348 122.477 29.453 120.848 29.234C119.147 29.0053 116.871 29 113.5 29H46.5C43.1295 29 40.8531 29.0053 39.1522 29.234Z" fill="#7857d1"/>
<path fill-rule="evenodd" clip-rule="evenodd" d="M124.45 65H124.339C121.133 65 118.575 64.9999 116.569 65.2697C114.497 65.5483 112.79 66.1393 111.44 67.4896C110.089 68.8399 109.498 70.5467 109.22 72.6192C108.95 74.6254 108.95 77.1833 108.95 80.3885V80.5V107.9H105.5H104V109.4V112.5C104 115.261 106.239 117.5 109 117.5H164.7C167.461 117.5 169.7 115.261 169.7 112.5V109.4V107.9H168.2H164.75V80.5V80.3885V80.3883C164.75 77.1832 164.75 74.6254 164.48 72.6192C164.202 70.5467 163.611 68.8399 162.26 67.4896C160.91 66.1393 159.203 65.5483 157.131 65.2697C155.125 64.9999 152.567 65 149.362 65H149.25H124.45ZM161.75 107.9V80.5C161.75 77.1578 161.747 74.802 161.507 73.019C161.273 71.2791 160.839 70.3109 160.139 69.6109C159.439 68.9109 158.471 68.4768 156.731 68.2429C154.948 68.0032 152.592 68 149.25 68H124.45C121.108 68 118.752 68.0032 116.969 68.2429C115.229 68.4768 114.261 68.9109 113.561 69.6109C112.861 70.3109 112.427 71.2791 112.193 73.019C111.953 74.802 111.95 77.1578 111.95 80.5V107.9H161.75ZM107 112.5V110.9H166.7V112.5C166.7 113.605 165.805 114.5 164.7 114.5H109C107.895 114.5 107 113.605 107 112.5Z" fill="#7857d1"/>
<path fill-rule="evenodd" clip-rule="evenodd" d="M33.3333 75H33.2415H33.2415C30.5829 75 28.4606 75 26.7725 75.1903C25.0349 75.3862 23.5728 75.7995 22.3255 76.7565C21.7362 77.2087 21.2087 77.7362 20.7565 78.3255C19.7995 79.5728 19.3862 81.0349 19.1903 82.7725C19 84.4606 19 86.5829 19 89.2415V89.2415V89.3333V103.333V103.425V103.425C19 106.084 19 108.206 19.1903 109.894C19.3862 111.632 19.7995 113.094 20.7565 114.341C21.2087 114.93 21.7362 115.458 22.3255 115.91C23.5728 116.867 25.0349 117.28 26.7725 117.476C28.4606 117.667 30.5829 117.667 33.2415 117.667H33.3333H33.4252C36.0838 117.667 38.2061 117.667 39.8941 117.476C41.6318 117.28 43.0939 116.867 44.3411 115.91C44.9305 115.458 45.458 114.93 45.9102 114.341C46.8672 113.094 47.2805 111.632 47.4764 109.894C47.6667 108.206 47.6667 106.084 47.6667 103.425V103.425V103.333V89.3333V89.2415V89.2413C47.6667 86.5828 47.6667 84.4605 47.4764 82.7725C47.2805 81.0349 46.8672 79.5728 45.9102 78.3255C45.458 77.7362 44.9305 77.2087 44.3411 76.7565C43.0939 75.7995 41.6318 75.3862 39.8941 75.1903C38.2061 75 36.0838 75 33.4252 75H33.4251H33.3333ZM24.1518 79.1366C24.7897 78.6471 25.6385 78.3371 27.1086 78.1714C28.6089 78.0022 30.5619 78 33.3333 78C36.1047 78 38.0577 78.0022 39.5581 78.1714C41.0282 78.3371 41.8769 78.6471 42.5148 79.1366C42.8962 79.4292 43.2375 79.7705 43.5301 80.1518C44.0196 80.7897 44.3296 81.6385 44.4953 83.1086C44.6644 84.6089 44.6667 86.5619 44.6667 89.3333V103.333C44.6667 106.105 44.6644 108.058 44.4953 109.558C44.3295 111.028 44.0196 111.877 43.5301 112.515C43.2375 112.896 42.8962 113.237 42.5148 113.53C41.8769 114.02 41.0282 114.33 39.5581 114.495C38.0577 114.664 36.1047 114.667 33.3333 114.667C30.5619 114.667 28.6089 114.664 27.1086 114.495C25.6385 114.33 24.7897 114.02 24.1518 113.53C23.7705 113.237 23.4292 112.896 23.1366 112.515C22.6471 111.877 22.3371 111.028 22.1714 109.558C22.0022 108.058 22 106.105 22 103.333V89.3333C22 86.5619 22.0022 84.6089 22.1714 83.1086C22.3371 81.6385 22.6471 80.7897 23.1366 80.1518C23.4292 79.7705 23.7705 79.4292 24.1518 79.1366ZM33.3333 110.567C34.2354 110.567 34.9666 109.835 34.9666 108.933C34.9666 108.031 34.2354 107.3 33.3333 107.3C32.4312 107.3 31.7 108.031 31.7 108.933C31.7 109.835 32.4312 110.567 33.3333 110.567Z" fill="#7857d1"/>
<path fill-rule="evenodd" clip-rule="evenodd" d="M144.966 74.75L145.111 74.75L145.256 74.75C146.333 74.7495 147.078 74.7491 147.743 75.011C148.158 75.1748 148.542 75.4116 148.874 75.7102C149.406 76.1877 149.738 76.8541 150.22 77.8177L150.22 77.8177L150.284 77.9472L150.449 78.2757C150.487 78.3531 150.511 78.434 150.522 78.5152C153.923 80.4149 156.222 84.05 156.222 88.2222C156.222 92.3921 153.925 96.0254 150.528 97.926C150.524 98.0305 150.498 98.1358 150.449 98.2354L150.284 98.5639L150.22 98.6934L150.22 98.6934C149.738 99.657 149.406 100.323 148.874 100.801C148.542 101.1 148.158 101.336 147.743 101.5C147.078 101.762 146.333 101.762 145.256 101.761L145.111 101.761L144.966 101.761C143.889 101.762 143.144 101.762 142.48 101.5C142.064 101.336 141.681 101.1 141.348 100.801C140.817 100.323 140.484 99.6569 140.003 98.6934L139.938 98.5639L139.774 98.2354C139.724 98.1358 139.698 98.0305 139.695 97.926C136.297 96.0255 134 92.3921 134 88.2222C134 84.05 136.3 80.4149 139.7 78.5152C139.711 78.434 139.735 78.3531 139.774 78.2757L139.938 77.9472L140.003 77.8177C140.484 76.8542 140.817 76.1877 141.348 75.7102C141.681 75.4116 142.064 75.1748 142.48 75.011C143.144 74.7491 143.889 74.7495 144.966 74.75ZM141.751 98.8162C142.001 99.2832 142.157 99.5108 142.351 99.685C142.55 99.8642 142.78 100.006 143.029 100.105C143.395 100.249 143.831 100.261 145.111 100.261C146.391 100.261 146.827 100.249 147.193 100.105C147.442 100.006 147.672 99.8642 147.872 99.685C148.066 99.5108 148.222 99.2832 148.471 98.8162C147.411 99.1521 146.282 99.3333 145.111 99.3333C143.94 99.3333 142.811 99.1521 141.751 98.8162ZM147.872 76.8261C148.054 76.99 148.203 77.2012 148.428 77.6146C147.381 77.2874 146.266 77.1111 145.111 77.1111C143.956 77.1111 142.842 77.2874 141.794 77.6146C142.019 77.2012 142.168 76.99 142.351 76.8261C142.55 76.647 142.78 76.5049 143.029 76.4066C143.395 76.2625 143.831 76.25 145.111 76.25C146.391 76.25 146.827 76.2625 147.193 76.4066C147.442 76.5049 147.672 76.647 147.872 76.8261ZM145.111 79.1111C140.079 79.1111 136 83.1903 136 88.2222C136 93.2541 140.079 97.3333 145.111 97.3333C150.143 97.3333 154.222 93.2541 154.222 88.2222C154.222 83.1903 150.143 79.1111 145.111 79.1111Z" fill="#7857d1"/>
</svg>
